<?xml version="1.0" encoding="utf-8"?>
<!-- Generator: Adobe Illustrator 14.0.0, SVG Export Plug-In  -->
<!DOCTYPE svg PUBLIC "-//W3C//DTD SVG 1.1//EN" "http://www.w3.org/Graphics/SVG/1.1/DTD/svg11.dtd" [
	<!ENTITY ns_flows "http://ns.adobe.com/Flows/1.0/">
]>
<svg version="1.1"
	 xmlns="http://www.w3.org/2000/svg" xmlns:xlink="http://www.w3.org/1999/xlink" xmlns:a="http://ns.adobe.com/AdobeSVGViewerExtensions/3.0/"
	 x="0px" y="0px" width="800px" height="800px" viewBox="-12.567 -52.974 800 800" enable-background="new -12.567 -52.974 800 800"
	 xml:space="preserve">
<defs>
</defs>
<g>
	<g>
		<g enable-background="new    ">
			<g>
				<path fill="#000080" d="M324.63,514.176c-0.234,0.317-0.51,0.584-0.799,0.829C324.128,514.753,324.404,514.48,324.63,514.176z"
					/>
			</g>
			<g>
				<path fill="#0000E5" d="M323.388,515.361c-0.252,0.171-0.513,0.313-0.78,0.429c0.34-0.147,0.657-0.35,0.962-0.574
					C323.506,515.262,323.453,515.318,323.388,515.361z"/>
			</g>
			<g>
				<path fill="#0000E4" d="M318.15,515.433c-0.103-0.067-0.18-0.157-0.276-0.232c0.117,0.091,0.223,0.199,0.347,0.276
					C318.197,515.462,318.173,515.447,318.15,515.433z"/>
			</g>
			<g>
				<path fill="#000080" d="M317.874,515.2c-0.184-0.14-0.368-0.277-0.534-0.447C317.5,514.918,317.688,515.059,317.874,515.2z"/>
			</g>
			<g enable-background="new    ">
				<defs>
					<path id="SVGID_35_" enable-background="new    " d="M753.08,692.861c-40.638-11.987-81.271-23.977-121.909-35.965
						c-1.998-0.59-3.445-2.476-3.431-4.733l121.908,35.965C749.634,690.387,751.082,692.272,753.08,692.861z"/>
				</defs>
				<clipPath id="SVGID_36_">
					<use xlink:href="#SVGID_35_"  overflow="visible"/>
				</clipPath>
				<g clip-path="url(#SVGID_36_)" enable-background="new    ">
					<path fill="#000085" d="M753.08,692.861l-121.909-35.965c-1.998-0.59-3.445-2.476-3.431-4.733l121.908,35.965
						C749.634,690.387,751.082,692.272,753.08,692.861"/>
				</g>
			</g>
			<g>
				<polygon fill="#000083" points="753.761,58.059 631.852,22.093 640.883,7.626 762.792,43.592 				"/>
			</g>
			<g enable-background="new    ">
				<defs>
					<path id="SVGID_34_" enable-background="new    " d="M640.883,7.626c0.483-0.774,0.736-1.631,0.776-2.484l121.908,35.965
						c0,0.001,0,0.003,0,0.004c-40.505-11.95-81.008-23.898-121.512-35.848c22.935,6.766,45.869,13.532,68.805,20.298
						c2.381,0.703,5.555,1.639,7.936,2.341c7.737,2.283,15.475,4.565,23.213,6.848c2.226,0.657,5.192,1.532,7.418,2.188
						c4.242,1.251,9.898,2.92,14.141,4.172l0,0c-0.041,0.85-0.293,1.704-0.773,2.476c-40.505-11.95-81.007-23.898-121.512-35.848
						c40.505,11.95,81.007,23.898,121.512,35.848c-0.001,0.001-0.002,0.003-0.002,0.004
						C726.219,32.802,677.456,18.416,640.883,7.626z"/>
				</defs>
				<clipPath id="SVGID_37_">
					<use xlink:href="#SVGID_34_"  overflow="visible"/>
				</clipPath>
				<g clip-path="url(#SVGID_37_)" enable-background="new    ">
					<path fill="#000085" d="M762.792,43.592L640.883,7.626c0.483-0.774,0.736-1.631,0.776-2.484l121.908,35.965
						C763.527,41.96,763.274,42.817,762.792,43.592"/>
				</g>
			</g>
			<g enable-background="new    ">
				<defs>
					<path id="SVGID_33_" enable-background="new    " d="M761.757,37.01L639.849,1.044c-0.126-0.101-0.258-0.196-0.396-0.285
						l121.909,35.965C761.5,36.813,761.632,36.909,761.757,37.01z"/>
				</defs>
				<clipPath id="SVGID_38_">
					<use xlink:href="#SVGID_33_"  overflow="visible"/>
				</clipPath>
				<g clip-path="url(#SVGID_38_)" enable-background="new    ">
					<path fill="#000085" d="M761.757,37.01L639.849,1.044c-0.126-0.101-0.258-0.196-0.396-0.285l121.909,35.965
						C761.5,36.813,761.632,36.909,761.757,37.01"/>
				</g>
			</g>
			<g enable-background="new    ">
				<defs>
					<path id="SVGID_32_" enable-background="new    " d="M639.453,0.759c-0.389-0.252-0.801-0.439-1.224-0.564L760.139,36.16
						c0.423,0.125,0.835,0.312,1.224,0.564C724.789,25.935,674.095,16.695,639.453,0.759z"/>
				</defs>
				<clipPath id="SVGID_39_">
					<use xlink:href="#SVGID_32_"  overflow="visible"/>
				</clipPath>
				<g clip-path="url(#SVGID_39_)" enable-background="new    ">
					<path fill="#000085" d="M761.362,36.725L639.453,0.759c-0.389-0.252-0.802-0.44-1.225-0.565L760.137,36.16
						C760.56,36.285,760.973,36.472,761.362,36.725"/>
				</g>
			</g>
			<g>
				<path fill="#0000E5" d="M761.755,37.01c-0.291-0.237-0.642-0.393-0.984-0.553c0.196,0.091,0.404,0.147,0.59,0.269
					C761.499,36.814,761.631,36.909,761.755,37.01z"/>
			</g>
			<g>
				<path fill="#0000E5" d="M760.771,36.457c-0.183-0.086-0.35-0.186-0.543-0.249C760.414,36.268,760.589,36.372,760.771,36.457z"/>
			</g>
			<g>
				<path fill="#0000E5" d="M762.792,43.592c0.482-0.774,0.735-1.632,0.775-2.484l-4.222,646.906
					c-0.018,2.756-2.206,5.008-4.877,5.039c-2.679,0.031-4.838-2.17-4.82-4.925l4.112-630.069L762.792,43.592z"/>
			</g>
			<g>
				<polygon fill="#000080" points="749.648,688.128 627.74,652.163 631.852,22.093 753.761,58.059 				"/>
			</g>
			<g>
				<path fill="#0000E5" d="M758.922,35.992c0.439,0.011,0.876,0.08,1.306,0.216c-0.42-0.132-0.863-0.208-1.325-0.218
					L758.922,35.992z"/>
			</g>
			<g enable-background="new    ">
				<defs>
					<path id="SVGID_31_" enable-background="new    " d="M445.739,550.971l-121.908-35.966c0.289-0.245,0.565-0.512,0.799-0.829
						l121.909,35.966C446.305,550.459,446.028,550.725,445.739,550.971z"/>
				</defs>
				<clipPath id="SVGID_40_">
					<use xlink:href="#SVGID_31_"  overflow="visible"/>
				</clipPath>
				<g clip-path="url(#SVGID_40_)" enable-background="new    ">
					<path fill="#000085" d="M445.739,550.971l-121.908-35.966c0.289-0.245,0.565-0.512,0.799-0.829l121.909,35.966
						C446.305,550.459,446.028,550.725,445.739,550.971"/>
				</g>
			</g>
			<g enable-background="new    ">
				<defs>
					<path id="SVGID_30_" enable-background="new    " d="M323.569,515.216c0.09-0.067,0.176-0.137,0.262-0.211l121.908,35.966
						c-0.086,0.073-0.171,0.144-0.262,0.21C408.905,540.392,360.142,526.005,323.569,515.216z"/>
				</defs>
				<clipPath id="SVGID_41_">
					<use xlink:href="#SVGID_30_"  overflow="visible"/>
				</clipPath>
				<g clip-path="url(#SVGID_41_)" enable-background="new    ">
					<path fill="#00008A" d="M445.478,551.181l-121.908-35.965c0.063-0.047,0.123-0.095,0.183-0.145l121.909,35.965
						C445.601,551.086,445.541,551.135,445.478,551.181"/>
					<path fill="#000085" d="M445.661,551.036l-121.909-35.965c0.026-0.021,0.052-0.044,0.079-0.066l121.908,35.966
						C445.714,550.993,445.688,551.015,445.661,551.036"/>
				</g>
			</g>
			<g enable-background="new    ">
				<defs>
					<path id="SVGID_29_" enable-background="new    " d="M442.301,550.249c-39.578-11.678-79.153-23.355-118.731-35.033
						l121.908,35.965c-0.062,0.047-0.115,0.102-0.181,0.146c-40.637-11.989-81.271-23.977-121.909-35.966
						c0.065-0.043,0.118-0.099,0.181-0.145C363.147,526.894,402.723,538.571,442.301,550.249z"/>
				</defs>
				<clipPath id="SVGID_42_">
					<use xlink:href="#SVGID_29_"  overflow="visible"/>
				</clipPath>
				<g clip-path="url(#SVGID_42_)" enable-background="new    ">
					<path fill="#00008A" d="M445.296,551.326l-121.908-35.965c0.022-0.015,0.043-0.031,0.064-0.048l121.909,35.965
						C445.34,551.295,445.318,551.312,445.296,551.326"/>
					<path fill="#000085" d="M445.36,551.278l-121.909-35.965c0.025-0.021,0.05-0.044,0.076-0.065l121.909,35.966
						C445.41,551.234,445.386,551.257,445.36,551.278"/>
					<path fill="#00008A" d="M445.437,551.214l-121.909-35.966c0.013-0.011,0.027-0.021,0.042-0.032l121.908,35.965
						C445.464,551.191,445.45,551.202,445.437,551.214"/>
				</g>
			</g>
			<g enable-background="new    ">
				<defs>
					<path id="SVGID_28_" enable-background="new    " d="M323.388,515.361C323.388,515.361,323.388,515.361,323.388,515.361
						c40.638,11.988,81.272,23.976,121.909,35.965c0,0,0,0-0.001,0c-40.505-11.949-81.007-23.898-121.512-35.848
						c40.505,11.949,81.007,23.898,121.512,35.848l0,0C408.724,540.537,359.96,526.151,323.388,515.361z"/>
				</defs>
				<clipPath id="SVGID_43_">
					<use xlink:href="#SVGID_28_"  overflow="visible"/>
				</clipPath>
				<g clip-path="url(#SVGID_43_)" enable-background="new    ">
					<path fill="#00008A" d="M445.296,551.326l-121.908-35.965c0.022-0.015,0.043-0.031,0.064-0.048l121.909,35.965
						C445.34,551.295,445.318,551.312,445.296,551.326"/>
				</g>
			</g>
			<g enable-background="new    ">
				<defs>
					<path id="SVGID_27_" enable-background="new    " d="M324.856,513.844c1.003-1.604,1.081-3.711,0.026-5.392l121.908,35.965
						c1.056,1.681,0.978,3.788-0.025,5.393C410.192,539.02,361.429,524.634,324.856,513.844z"/>
				</defs>
				<clipPath id="SVGID_44_">
					<use xlink:href="#SVGID_27_"  overflow="visible"/>
				</clipPath>
				<g clip-path="url(#SVGID_44_)" enable-background="new    ">
					<path fill="#000085" d="M446.765,549.81l-121.909-35.966c1.003-1.604,1.081-3.711,0.026-5.392l121.908,35.965
						C447.846,546.098,447.768,548.205,446.765,549.81"/>
				</g>
			</g>
			<g enable-background="new    ">
				<defs>
					<path id="SVGID_26_" enable-background="new    " d="M444.516,551.756L322.607,515.79c0.267-0.115,0.528-0.258,0.78-0.429
						l121.908,35.965C445.044,551.497,444.783,551.64,444.516,551.756z"/>
				</defs>
				<clipPath id="SVGID_45_">
					<use xlink:href="#SVGID_26_"  overflow="visible"/>
				</clipPath>
				<g clip-path="url(#SVGID_45_)" enable-background="new    ">
					<path fill="#00008F" d="M444.516,551.756L322.607,515.79c0.076-0.032,0.151-0.067,0.226-0.104l121.909,35.965
						C444.667,551.688,444.592,551.723,444.516,551.756"/>
					<path fill="#00008A" d="M444.742,551.65l-121.909-35.965c0.188-0.094,0.374-0.202,0.554-0.324l121.908,35.965
						C445.115,551.449,444.931,551.557,444.742,551.65"/>
				</g>
			</g>
			<g>
				<polygon fill="#000083" points="442.747,537.947 320.838,501.982 632.688,2.444 754.597,38.41 				"/>
			</g>
			<g>
				<polygon fill="#000080" points="446.79,544.417 324.882,508.452 320.838,501.982 442.747,537.947 				"/>
			</g>
			<g enable-background="new    ">
				<defs>
					<path id="SVGID_25_" enable-background="new    " d="M11.899,8.255c-0.43-0.308-0.905-0.538-1.402-0.685l121.908,35.965
						c0.498,0.147,0.973,0.377,1.403,0.685C97.235,33.431,46.164,24.986,11.899,8.255z"/>
				</defs>
				<clipPath id="SVGID_46_">
					<use xlink:href="#SVGID_25_"  overflow="visible"/>
				</clipPath>
				<g clip-path="url(#SVGID_46_)" enable-background="new    ">
					<path fill="#000085" d="M133.808,44.22L11.899,8.255c-0.431-0.309-0.906-0.539-1.404-0.686l121.909,35.965
						C132.902,43.682,133.377,43.912,133.808,44.22"/>
				</g>
			</g>
			<g>
				<polygon fill="#000080" points="438.612,549.916 316.703,513.95 13.81,29.24 135.718,65.205 				"/>
			</g>
			<g enable-background="new    ">
				<defs>
					<path id="SVGID_24_" enable-background="new    " d="M9.109,7.373c0.479-0.005,0.942,0.061,1.379,0.189l121.908,35.965
						c-0.437-0.128-0.899-0.194-1.378-0.189c-0.004,0-0.009,0-0.013,0C90.367,31.35,49.733,19.361,9.096,7.374
						C9.1,7.373,9.104,7.373,9.109,7.373z"/>
				</defs>
				<clipPath id="SVGID_47_">
					<use xlink:href="#SVGID_24_"  overflow="visible"/>
				</clipPath>
				<g clip-path="url(#SVGID_47_)" enable-background="new    ">
					<path fill="#000094" d="M129.916,43.48L8.007,7.515C8.361,7.427,8.73,7.377,9.109,7.373c0.033,0,0.066,0,0.099,0
						l121.908,35.965c-0.033,0-0.065,0-0.098,0C130.639,43.343,130.27,43.392,129.916,43.48"/>
					<path fill="#000099" d="M131.116,43.338L9.208,7.373c0.446,0.004,0.876,0.07,1.284,0.19l121.908,35.965
						C131.992,43.408,131.562,43.342,131.116,43.338"/>
				</g>
			</g>
			<g enable-background="new    ">
				<defs>
					<path id="SVGID_23_" enable-background="new    " d="M10.496,7.569c40.637,11.988,81.271,23.977,121.908,35.965
						c-0.449-0.133-0.918-0.198-1.39-0.192L9.105,7.377C9.577,7.372,10.046,7.437,10.496,7.569z"/>
				</defs>
				<clipPath id="SVGID_48_">
					<use xlink:href="#SVGID_23_"  overflow="visible"/>
				</clipPath>
				<g clip-path="url(#SVGID_48_)" enable-background="new    ">
					<path fill="#000094" d="M131.014,43.342L9.105,7.377c0.032,0,0.064,0,0.097,0l121.909,35.965
						C131.079,43.342,131.046,43.342,131.014,43.342"/>
					<path fill="#000099" d="M131.111,43.342L9.202,7.377c0.439,0.004,0.875,0.069,1.293,0.192l121.908,35.965
						C131.985,43.411,131.55,43.346,131.111,43.342"/>
				</g>
			</g>
			<g>
				<polygon fill="#000080" points="135.718,65.205 13.81,29.24 4.982,15.113 126.891,51.079 				"/>
			</g>
			<g enable-background="new    ">
				<defs>
					<path id="SVGID_22_" enable-background="new    " d="M126.891,51.079L4.982,15.113c-1.434-2.298-0.768-5.394,1.494-6.91
						c0.816-0.548,1.729-0.815,2.629-0.826l121.909,35.965c-0.9,0.011-1.812,0.278-2.629,0.826
						C126.123,45.685,125.457,48.78,126.891,51.079z"/>
				</defs>
				<clipPath id="SVGID_49_">
					<use xlink:href="#SVGID_22_"  overflow="visible"/>
				</clipPath>
				<g clip-path="url(#SVGID_49_)" enable-background="new    ">
					<path fill="#000085" d="M126.891,51.079L4.982,15.113C3.64,12.96,4.139,10.109,6.065,8.51l121.909,35.965
						C126.047,46.074,125.548,48.926,126.891,51.079"/>
					<path fill="#00008A" d="M127.974,44.476L6.065,8.51c0.131-0.108,0.268-0.211,0.411-0.307C6.657,8.082,6.843,7.974,7.032,7.88
						L128.94,43.845c-0.189,0.094-0.375,0.202-0.555,0.323C128.242,44.265,128.104,44.367,127.974,44.476"/>
					<path fill="#00008F" d="M128.94,43.845L7.032,7.88C7.35,7.722,7.678,7.602,8.01,7.519l121.909,35.965
						C129.586,43.567,129.258,43.687,128.94,43.845"/>
					<path fill="#000094" d="M129.918,43.484L8.01,7.519c0.363-0.09,0.73-0.137,1.096-0.142l121.909,35.965
						C130.648,43.347,130.281,43.394,129.918,43.484"/>
				</g>
			</g>
			<g>
				<path fill="#0000E5" d="M126.891,51.079l8.827,14.126l-4.113,630.182c-0.018,2.756-2.197,5.008-4.876,5.039
					c-2.68,0.031-4.839-2.17-4.821-4.925l4.223-647.115c0.018-2.755,2.207-5.016,4.886-5.047c1.042-0.012,2.004,0.315,2.791,0.882
					c-0.819-0.587-1.799-0.89-2.794-0.878c-0.9,0.01-1.812,0.278-2.629,0.826C126.123,45.685,125.457,48.78,126.891,51.079z"/>
			</g>
			<g>
				<path fill="#0000E5" d="M131.014,43.342c0.995-0.012,1.975,0.291,2.794,0.878c0.608,0.478,0.973,0.882,1.27,1.359
					l307.67,492.367l4.042,6.47c1.056,1.681,0.978,3.788-0.024,5.393c-0.562,0.785-0.979,1.189-1.469,1.518
					c-1.557,0.724-2.092,0.82-2.623,0.826c-1.188-0.078-1.907-0.314-2.543-0.711c-0.596-0.372-1.118-0.884-1.519-1.525
					L135.718,65.205l-8.827-14.126c-1.434-2.298-0.768-5.394,1.494-6.91C129.202,43.621,130.114,43.353,131.014,43.342z"/>
			</g>
			<g>
				<path fill="#0000E5" d="M761.361,36.725c1.665,1.347,2.276,2.857,2.206,4.383c-0.04,0.853-0.293,1.709-0.776,2.484
					l-9.031,14.467L446.765,549.81c1.003-1.604,1.081-3.712,0.025-5.393l-4.043-6.47L754.597,38.41
					c2.278-2.134,3.214-2.428,4.161-2.439C759.652,35.96,760.557,36.203,761.361,36.725z"/>
			</g>
			<g>
				<path fill="#0000E5" d="M758.848,35.981c0.019,0,0.036,0.008,0.055,0.009l0.02,0.002
					C758.896,35.991,758.873,35.98,758.848,35.981z"/>
			</g>
			<g enable-background="new    ">
				<defs>
					<path id="SVGID_21_" enable-background="new    " d="M638.229,0.196c40.637,11.989,81.271,23.977,121.908,35.965
						c-0.452-0.133-0.917-0.196-1.38-0.19c-0.947,0.011-1.883,0.305-4.161,2.439L632.688,2.444c2.279-2.134,3.215-2.428,4.162-2.439
						C637.312,0,637.776,0.062,638.229,0.196z"/>
				</defs>
				<clipPath id="SVGID_50_">
					<use xlink:href="#SVGID_21_"  overflow="visible"/>
				</clipPath>
				<g clip-path="url(#SVGID_50_)" enable-background="new    ">
					<path fill="#000085" d="M754.597,38.41L632.688,2.444c0.407-0.381,0.771-0.703,1.1-0.976l121.909,35.965
						C755.367,37.707,755.003,38.029,754.597,38.41"/>
					<path fill="#00008A" d="M755.695,37.434L633.787,1.469c0.655-0.542,1.171-0.888,1.608-1.106l121.908,35.965
						C756.866,36.546,756.351,36.892,755.695,37.434"/>
					<path fill="#00008F" d="M757.304,36.328L635.396,0.363c0.259-0.129,0.49-0.214,0.707-0.268l121.908,35.965
						C757.794,36.115,757.562,36.199,757.304,36.328"/>
					<path fill="#000094" d="M758.011,36.061L636.103,0.095c0.264-0.066,0.505-0.087,0.747-0.09c0.032,0,0.064,0,0.097,0
						L758.854,35.97c-0.032,0-0.064,0-0.097,0C758.516,35.974,758.274,35.995,758.011,36.061"/>
					<path fill="#000099" d="M758.854,35.97L636.946,0.005c0.431,0.004,0.862,0.066,1.283,0.191l121.908,35.965
						C759.717,36.037,759.285,35.974,758.854,35.97"/>
				</g>
			</g>
			<g enable-background="new    ">
				<defs>
					<path id="SVGID_20_" enable-background="new    " d="M636.87,0c0.471-0.003,0.925,0.062,1.354,0.189l121.909,35.965
						c-0.429-0.126-0.884-0.192-1.354-0.189C718.142,23.977,677.51,11.983,636.87,0z"/>
				</defs>
				<clipPath id="SVGID_51_">
					<use xlink:href="#SVGID_20_"  overflow="visible"/>
				</clipPath>
				<g clip-path="url(#SVGID_51_)" enable-background="new    ">
					<path fill="#000094" d="M757.655,36.107L635.747,0.142c0.354-0.088,0.723-0.137,1.102-0.142c0.032,0,0.065,0,0.098,0
						l121.909,35.965c-0.033,0-0.065,0-0.099,0C758.378,35.97,758.01,36.019,757.655,36.107"/>
					<path fill="#000099" d="M758.855,35.965L636.946,0c0.444,0.004,0.874,0.07,1.28,0.19l121.908,35.965
						C759.729,36.035,759.3,35.969,758.855,35.965"/>
				</g>
			</g>
			<g>
				<path fill="#0000E5" d="M758.691,35.979h-0.015c0.027-0.001,0.051-0.013,0.079-0.013c0.032,0,0.06,0.015,0.092,0.015
					c-0.029,0-0.06-0.013-0.09-0.012C758.735,35.97,758.714,35.979,758.691,35.979z"/>
			</g>
			<g enable-background="new    ">
				<defs>
					<path id="SVGID_19_" enable-background="new    " d="M636.87,0c0.047,0.006,0.104,0.031,0.149,0.044
						c0.292,0.086,0.583,0.172,0.875,0.258c0.309,0.091,0.616,0.182,0.925,0.272c0.069,0.021,0.162,0.048,0.231,0.068
						c39.91,11.775,79.818,23.548,119.729,35.322c-0.008,0-0.015,0-0.022,0c-0.035,0-0.07,0.001-0.105,0.002
						C718.014,23.979,677.38,11.991,636.742,0.002l0,0C636.778,0.001,636.813,0,636.849,0C636.855,0,636.863,0,636.87,0z"/>
				</defs>
				<clipPath id="SVGID_52_">
					<use xlink:href="#SVGID_19_"  overflow="visible"/>
				</clipPath>
				<g clip-path="url(#SVGID_52_)" enable-background="new    ">
					<path fill="#000094" d="M757.655,36.107L635.747,0.142c0.354-0.088,0.723-0.137,1.102-0.142c0.032,0,0.065,0,0.098,0
						l121.909,35.965c-0.033,0-0.065,0-0.099,0C758.378,35.97,758.01,36.019,757.655,36.107"/>
				</g>
			</g>
			<g enable-background="new    ">
				<defs>
					<path id="SVGID_18_" enable-background="new    " d="M636.733,0.003c0.003,0,0.006,0,0.009,0
						c40.638,11.988,81.271,23.977,121.909,35.965l0,0c-0.004,0-0.007,0-0.01,0c-0.126-0.037-0.294-0.087-0.42-0.124
						c-1.465-0.432-2.93-0.864-4.395-1.296C714.795,23.033,675.766,11.518,636.733,0.003z"/>
				</defs>
				<clipPath id="SVGID_53_">
					<use xlink:href="#SVGID_18_"  overflow="visible"/>
				</clipPath>
				<g clip-path="url(#SVGID_53_)" enable-background="new    ">
					<path fill="#000094" d="M757.655,36.107L635.747,0.142c0.354-0.088,0.723-0.137,1.102-0.142c0.032,0,0.065,0,0.098,0
						l121.909,35.965c-0.033,0-0.065,0-0.099,0C758.378,35.97,758.01,36.019,757.655,36.107"/>
				</g>
			</g>
			<g>
				<path fill="#0000E5" d="M757.5,36.172c0.378-0.107,0.77-0.182,1.177-0.193h0.015C758.288,35.99,757.889,36.062,757.5,36.172z"/>
			</g>
			<g>
				<path fill="#0000E5" d="M757.5,36.172c-0.044,0.013-0.094,0.009-0.139,0.024C757.406,36.182,757.454,36.186,757.5,36.172z"/>
			</g>
			<g enable-background="new    ">
				<defs>
					<path id="SVGID_17_" enable-background="new    " d="M636.733,0.003c2.034,0.257,4.59,1.354,6.557,1.935
						c38.451,11.344,76.899,22.688,115.352,34.031c-0.589,0.021-1.151,0.15-1.672,0.367C716.333,24.347,675.698,12.359,635.062,0.37
						l0,0C635.581,0.153,636.145,0.024,636.733,0.003z"/>
				</defs>
				<clipPath id="SVGID_54_">
					<use xlink:href="#SVGID_17_"  overflow="visible"/>
				</clipPath>
				<g clip-path="url(#SVGID_54_)" enable-background="new    ">
					<path fill="#00008F" d="M756.68,36.468L634.771,0.503c0.31-0.154,0.637-0.275,0.977-0.361l121.908,35.965
						C757.315,36.192,756.988,36.314,756.68,36.468"/>
					<path fill="#000094" d="M757.655,36.107L635.747,0.142c0.354-0.088,0.723-0.137,1.102-0.142c0.032,0,0.065,0,0.098,0
						l121.909,35.965c-0.033,0-0.065,0-0.099,0C758.378,35.97,758.01,36.019,757.655,36.107"/>
				</g>
			</g>
			<g enable-background="new    ">
				<defs>
					<path id="SVGID_16_" enable-background="new    " d="M635.019,0.388c0.015-0.006,0.028-0.012,0.043-0.018
						c40.637,11.989,81.271,23.977,121.908,35.965c-0.014,0.006-0.028,0.012-0.042,0.018
						C716.292,24.36,675.656,12.377,635.019,0.388z"/>
				</defs>
				<clipPath id="SVGID_55_">
					<use xlink:href="#SVGID_16_"  overflow="visible"/>
				</clipPath>
				<g clip-path="url(#SVGID_55_)" enable-background="new    ">
					<path fill="#00008F" d="M756.68,36.468L634.771,0.503c0.31-0.154,0.637-0.275,0.977-0.361l121.908,35.965
						C757.315,36.192,756.988,36.314,756.68,36.468"/>
				</g>
			</g>
			<g enable-background="new    ">
				<defs>
					<path id="SVGID_15_" enable-background="new    " d="M635.019,0.388c2.048-0.122,4.59,1.354,6.558,1.934
						c16.836,4.967,33.671,9.934,50.507,14.901c18.973,5.597,37.943,11.194,56.916,16.791c1.321,0.39,2.643,0.78,3.964,1.169
						c0.312,0.092,0.727,0.214,1.038,0.306l2.927,0.864l0,0c-0.3,0.128-0.585,0.287-0.852,0.471L634.168,0.859
						C634.435,0.675,634.72,0.517,635.019,0.388z"/>
				</defs>
				<clipPath id="SVGID_56_">
					<use xlink:href="#SVGID_15_"  overflow="visible"/>
				</clipPath>
				<g clip-path="url(#SVGID_56_)" enable-background="new    ">
					<path fill="#00008A" d="M756.076,36.824L634.168,0.859c0.191-0.132,0.394-0.251,0.603-0.356L756.68,36.468
						C756.47,36.572,756.269,36.691,756.076,36.824"/>
					<path fill="#00008F" d="M756.68,36.468L634.771,0.503c0.31-0.154,0.637-0.275,0.977-0.361l121.908,35.965
						C757.315,36.192,756.988,36.314,756.68,36.468"/>
				</g>
			</g>
			<g>
				<path fill="#0000E5" d="M757.361,36.196c-0.452,0.144-0.886,0.353-1.285,0.628C756.469,36.555,756.902,36.342,757.361,36.196z"
					/>
			</g>
			<g enable-background="new    ">
				<defs>
					<path id="SVGID_14_" enable-background="new    " d="M632.873,2.157c0.049-0.072,0.1-0.143,0.152-0.211l121.908,35.965
						c-0.053,0.069-0.103,0.14-0.152,0.211C718.209,27.333,669.445,12.947,632.873,2.157z"/>
				</defs>
				<clipPath id="SVGID_57_">
					<use xlink:href="#SVGID_14_"  overflow="visible"/>
				</clipPath>
				<g clip-path="url(#SVGID_57_)" enable-background="new    ">
					<path fill="#000085" d="M754.781,38.123L632.873,2.157c0.049-0.072,0.1-0.143,0.152-0.211l121.908,35.965
						C754.881,37.98,754.831,38.051,754.781,38.123"/>
				</g>
			</g>
			<g>
				<path fill="#000080" d="M754.781,38.123c0.05-0.072,0.1-0.143,0.152-0.211C754.881,37.98,754.831,38.051,754.781,38.123z"/>
			</g>
			<g enable-background="new    ">
				<defs>
					<path id="SVGID_13_" enable-background="new    " d="M754.698,38.249L632.79,2.284c0.027-0.042,0.055-0.085,0.083-0.127
						l121.908,35.965C754.753,38.164,754.726,38.207,754.698,38.249z"/>
				</defs>
				<clipPath id="SVGID_58_">
					<use xlink:href="#SVGID_13_"  overflow="visible"/>
				</clipPath>
				<g clip-path="url(#SVGID_58_)" enable-background="new    ">
					<path fill="#000085" d="M754.698,38.249L632.79,2.284c0.027-0.042,0.055-0.085,0.083-0.127l121.908,35.965
						C754.753,38.164,754.726,38.207,754.698,38.249"/>
				</g>
			</g>
			<g enable-background="new    ">
				<defs>
					<path id="SVGID_12_" enable-background="new    " d="M754.597,38.409L632.688,2.443c0.032-0.054,0.067-0.106,0.102-0.159
						l121.908,35.965C754.664,38.302,754.629,38.354,754.597,38.409z"/>
				</defs>
				<clipPath id="SVGID_59_">
					<use xlink:href="#SVGID_12_"  overflow="visible"/>
				</clipPath>
				<g clip-path="url(#SVGID_59_)" enable-background="new    ">
					<path fill="#000085" d="M754.597,38.409L632.688,2.443c0.032-0.054,0.067-0.106,0.102-0.159l121.908,35.965
						C754.664,38.302,754.629,38.354,754.597,38.409"/>
				</g>
			</g>
			<g>
				<path fill="#000080" d="M754.657,38.312l-0.061,0.097c0.032-0.054,0.067-0.106,0.102-0.16
					C754.685,38.27,754.671,38.291,754.657,38.312z"/>
			</g>
			<g>
				<path fill="#000080" d="M445.739,550.971c-0.085,0.073-0.171,0.144-0.262,0.21C445.568,551.114,445.653,551.044,445.739,550.971
					z"/>
			</g>
			<g enable-background="new    ">
				<defs>
					<path id="SVGID_11_" enable-background="new    " d="M441.287,551.961c-40.638-11.987-81.271-23.977-121.909-35.965
						c0.308,0.091,0.622,0.149,0.937,0.176l121.909,35.965C441.908,552.11,441.595,552.052,441.287,551.961z"/>
				</defs>
				<clipPath id="SVGID_60_">
					<use xlink:href="#SVGID_11_"  overflow="visible"/>
				</clipPath>
				<g clip-path="url(#SVGID_60_)" enable-background="new    ">
					<path fill="#000099" d="M441.287,551.961l-121.909-35.965c0.308,0.091,0.622,0.149,0.937,0.176l121.909,35.965
						C441.908,552.11,441.595,552.052,441.287,551.961"/>
				</g>
			</g>
			<g enable-background="new    ">
				<defs>
					<path id="SVGID_10_" enable-background="new    " d="M441.287,551.961l-121.909-35.965c-0.047-0.014-0.094-0.028-0.141-0.044
						l121.909,35.966C441.193,551.933,441.24,551.947,441.287,551.961z"/>
				</defs>
				<clipPath id="SVGID_61_">
					<use xlink:href="#SVGID_10_"  overflow="visible"/>
				</clipPath>
				<g clip-path="url(#SVGID_61_)" enable-background="new    ">
					<path fill="#000085" d="M441.287,551.961l-121.909-35.965c-0.047-0.014-0.094-0.028-0.141-0.044l121.909,35.966
						C441.193,551.933,441.24,551.947,441.287,551.961"/>
				</g>
			</g>
			<g>
				<path fill="#000080" d="M441.146,551.918c0.353,0.115,0.714,0.188,1.077,0.219C441.856,552.105,441.495,552.032,441.146,551.918
					z"/>
			</g>
			<g enable-background="new    ">
				<defs>
					<path id="SVGID_9_" enable-background="new    " d="M441.177,551.911c-40.638-11.989-81.272-23.977-121.909-35.966
						c-0.399-0.117-0.732-0.273-1.046-0.469c-0.595-0.372-1.118-0.884-1.519-1.526l121.909,35.966
						c0.4,0.642,0.923,1.153,1.519,1.525C440.444,551.637,440.777,551.793,441.177,551.911z"/>
				</defs>
				<clipPath id="SVGID_62_">
					<use xlink:href="#SVGID_9_"  overflow="visible"/>
				</clipPath>
				<g clip-path="url(#SVGID_62_)" enable-background="new    ">
					<path fill="#000085" d="M441.177,551.911l-121.909-35.966c-0.399-0.117-0.732-0.273-1.045-0.469
						c-0.595-0.372-1.118-0.884-1.519-1.526l121.909,35.966c0.4,0.642,0.923,1.153,1.519,1.525
						C440.444,551.637,440.777,551.793,441.177,551.911"/>
				</g>
			</g>
			<g enable-background="new    ">
				<defs>
					<path id="SVGID_8_" enable-background="new    " d="M441.146,551.918l-121.909-35.966c-0.354-0.116-0.696-0.275-1.016-0.476
						l121.908,35.965C440.45,551.642,440.793,551.802,441.146,551.918z"/>
				</defs>
				<clipPath id="SVGID_63_">
					<use xlink:href="#SVGID_8_"  overflow="visible"/>
				</clipPath>
				<g clip-path="url(#SVGID_63_)" enable-background="new    ">
					<path fill="#000085" d="M441.146,551.918l-121.909-35.966c-0.354-0.116-0.696-0.275-1.016-0.476l121.908,35.965
						C440.45,551.642,440.793,551.802,441.146,551.918"/>
				</g>
			</g>
			<g>
				<path fill="#000080" d="M441.146,551.918c-0.354-0.116-0.696-0.276-1.017-0.477
					C440.456,551.645,440.797,551.803,441.146,551.918z"/>
			</g>
			<g enable-background="new    ">
				<defs>
					<path id="SVGID_7_" enable-background="new    " d="M440.129,551.441l-121.908-35.965c-0.124-0.077-0.229-0.186-0.347-0.276
						l121.908,35.966C439.899,551.256,440.006,551.364,440.129,551.441z"/>
				</defs>
				<clipPath id="SVGID_64_">
					<use xlink:href="#SVGID_7_"  overflow="visible"/>
				</clipPath>
				<g clip-path="url(#SVGID_64_)" enable-background="new    ">
					<path fill="#000085" d="M440.129,551.441l-121.908-35.965c-0.124-0.077-0.229-0.186-0.347-0.276l121.908,35.966
						C439.899,551.256,440.006,551.364,440.129,551.441"/>
				</g>
			</g>
			<g enable-background="new    ">
				<defs>
					<path id="SVGID_6_" enable-background="new    " d="M317.874,515.2c-0.186-0.142-0.374-0.282-0.534-0.447l121.909,35.965
						c0.16,0.165,0.348,0.306,0.533,0.448L319.46,515.669C318.984,515.528,318.316,515.425,317.874,515.2z"/>
				</defs>
				<clipPath id="SVGID_65_">
					<use xlink:href="#SVGID_6_"  overflow="visible"/>
				</clipPath>
				<g clip-path="url(#SVGID_65_)" enable-background="new    ">
					<path fill="#000085" d="M439.782,551.166L317.874,515.2c-0.186-0.142-0.374-0.282-0.534-0.447l121.909,35.965
						C439.409,550.883,439.597,551.023,439.782,551.166"/>
				</g>
			</g>
			<g enable-background="new    ">
				<defs>
					<path id="SVGID_5_" enable-background="new    " d="M439.249,550.718L317.34,514.753c-0.148-0.152-0.267-0.325-0.393-0.494
						l121.909,35.966C438.982,550.393,439.101,550.565,439.249,550.718z"/>
				</defs>
				<clipPath id="SVGID_66_">
					<use xlink:href="#SVGID_5_"  overflow="visible"/>
				</clipPath>
				<g clip-path="url(#SVGID_66_)" enable-background="new    ">
					<path fill="#000085" d="M439.249,550.718L317.34,514.753c-0.148-0.152-0.267-0.325-0.393-0.494l121.909,35.966
						C438.982,550.393,439.101,550.565,439.249,550.718"/>
				</g>
			</g>
			<g>
				<path fill="#000080" d="M439.249,550.718c-0.148-0.152-0.267-0.325-0.393-0.493C438.982,550.394,439.105,550.57,439.249,550.718
					z"/>
			</g>
			<g enable-background="new    ">
				<defs>
					<path id="SVGID_4_" enable-background="new    " d="M316.948,514.259c-0.079-0.106-0.173-0.193-0.245-0.308l121.909,35.966
						c0.071,0.113,0.166,0.201,0.245,0.308c-40.308-11.892-80.612-23.783-120.919-35.675
						c40.307,11.892,80.611,23.783,120.919,35.675C402.283,539.435,348.205,536.099,316.948,514.259z"/>
				</defs>
				<clipPath id="SVGID_67_">
					<use xlink:href="#SVGID_4_"  overflow="visible"/>
				</clipPath>
				<g clip-path="url(#SVGID_67_)" enable-background="new    ">
					<path fill="#000085" d="M438.856,550.225l-121.909-35.966c-0.079-0.106-0.173-0.193-0.245-0.308l121.909,35.966
						C438.683,550.03,438.777,550.118,438.856,550.225"/>
				</g>
			</g>
			<g>
				<polygon fill="#000080" points="438.611,549.917 316.703,513.951 316.591,513.773 438.5,549.738 				"/>
			</g>
			<g>
				<path fill="#0000E5" d="M438.611,549.917l-0.111-0.179c0.099,0.174,0.236,0.324,0.356,0.486
					C438.777,550.118,438.683,550.03,438.611,549.917z"/>
			</g>
			<g enable-background="new    ">
				<defs>
					<path id="SVGID_3_" enable-background="new    " d="M125.34,700.234C84.703,688.246,44.068,676.258,3.431,664.27
						c-1.998-0.59-3.446-2.476-3.431-4.734l121.909,35.966C121.894,697.759,123.341,699.646,125.34,700.234z"/>
				</defs>
				<clipPath id="SVGID_68_">
					<use xlink:href="#SVGID_3_"  overflow="visible"/>
				</clipPath>
				<g clip-path="url(#SVGID_68_)" enable-background="new    ">
					<path fill="#000085" d="M125.34,700.234L3.431,664.27c-1.998-0.59-3.446-2.476-3.431-4.734l121.909,35.966
						C121.894,697.759,123.341,699.646,125.34,700.234"/>
				</g>
			</g>
			<g>
				<polygon fill="#000080" points="121.909,695.501 0,659.535 4.223,12.421 126.131,48.386 				"/>
			</g>
			<g enable-background="new    ">
				<defs>
					<path id="SVGID_2_" enable-background="new    " d="M4.226,12.273C44.863,24.262,85.498,36.25,126.135,48.239
						c-0.002,0.049-0.003,0.098-0.003,0.147L4.223,12.421C4.223,12.372,4.225,12.322,4.226,12.273z"/>
				</defs>
				<clipPath id="SVGID_69_">
					<use xlink:href="#SVGID_2_"  overflow="visible"/>
				</clipPath>
				<g clip-path="url(#SVGID_69_)" enable-background="new    ">
					<path fill="#000085" d="M126.131,48.386L4.223,12.421c0.01-1.578,0.732-2.993,1.85-3.921l121.908,35.965
						C126.864,45.393,126.142,46.809,126.131,48.386"/>
				</g>
			</g>
			<g enable-background="new    ">
				<defs>
					<path id="SVGID_1_" enable-background="new    " d="M4.226,12.273c0.093-2.684,2.244-4.862,4.87-4.9
						C49.733,19.361,90.367,31.35,131.004,43.338c-2.626,0.038-4.776,2.216-4.87,4.9C85.498,36.25,44.863,24.262,4.226,12.273z"/>
				</defs>
				<clipPath id="SVGID_70_">
					<use xlink:href="#SVGID_1_"  overflow="visible"/>
				</clipPath>
				<g clip-path="url(#SVGID_70_)" enable-background="new    ">
					<path fill="#000085" d="M126.131,48.386L4.223,12.421c0.01-1.578,0.732-2.993,1.85-3.921l121.908,35.965
						C126.864,45.393,126.142,46.809,126.131,48.386"/>
					<path fill="#00008A" d="M127.981,44.465L6.073,8.5c0.293-0.243,0.613-0.453,0.956-0.624l121.908,35.965
						C128.595,44.012,128.275,44.222,127.981,44.465"/>
					<path fill="#00008F" d="M128.938,43.842L7.029,7.877c0.31-0.154,0.637-0.276,0.979-0.362L129.916,43.48
						C129.575,43.565,129.247,43.688,128.938,43.842"/>
					<path fill="#000094" d="M129.916,43.48L8.007,7.515C8.361,7.427,8.73,7.377,9.109,7.373c0.033,0,0.066,0,0.099,0
						l121.908,35.965c-0.033,0-0.065,0-0.098,0C130.639,43.343,130.27,43.392,129.916,43.48"/>
				</g>
			</g>
		</g>
	</g>
</g>
</svg>
